<?xml version="1.0" encoding="utf-8"?>
<!-- Generator: Adobe Illustrator 26.3.1, SVG Export Plug-In . SVG Version: 6.00 Build 0)  -->
<svg version="1.1" id="Capa_1" xmlns="http://www.w3.org/2000/svg" xmlns:xlink="http://www.w3.org/1999/xlink" x="0px" y="0px"
	 viewBox="0 0 201.2 179.7" style="enable-background:new 0 0 201.2 179.7;" xml:space="preserve">
<style type="text/css">
	.st0{fill:#FFFFFF;}
</style>
<g>
	<path class="st0" d="M186.5,93.6c-2.5-2.5-5.8-3.7-8.7-5.7c0.6-2,4.2-2.7,2.4-5c-1.9-2.4-3.8,0.2-5.7,0.9c-0.8,0.3-1.4,0.9-2.2,1.2
		c-2.9,1.4-3.4,3.4-1.6,6c0.8,1.2,1.4,2.6,2.3,3.9c1.5,2.2,3.3,4.1,4.5-0.2c0.5-1.7,1.2-1.2,2.1-0.7c2.6,1.5,5.5,2.9,5.9,6.3
		c0.3,3.1-2.2,4.6-4.5,6.1c-5.1,3.2-10.9,5-16.7,6.5c-31.9,7.7-64.3,8.2-96.8,5.3c-2.9-0.3-4-1.7-4.2-4.4c-2.1-25.8-1.2-51.3,8-75.9
		c2-5.3,4.5-10.4,8.5-14.6c5.4-5.7,11-5.7,16.3,0.1c5.7,6.2,8.5,13.8,10.9,21.7c0.4,1.3,0.8,2.9-1.6,2.4c-1.4-0.3-2.8-0.5-3.3,1.2
		c-0.4,1.6,1,2.3,2.1,3c1.4,0.9,2.9,1.7,4.3,2.5c1.7,1,3.6,1.6,4.8-0.5c1.5-2.7,4.2-4.9,3.7-8.4c-0.2-1.1-1.6-1.5-2.5-0.8
		c-3,2.2-3.2-0.4-3.8-2.2c-2.1-6.3-4.5-12.6-8.4-18c-2.9-4.1-6.1-8-11.5-8.9c-2-0.8-4-0.7-5.9,0c-4.3,0.7-7.1,3.5-9.6,6.6
		c-3.8,4.5-6.3,9.8-8.4,15.2c-4.7,12.4-6.9,25.3-8,38.4c-1.1,12.1-1,24.2,0,36.4c0.2,2.2,0.9,5.2-3.1,4.6
		c-11.9-1.8-23.6-3.9-34.4-9.5c-1.8-0.9-3.5-2-4.6-3.7c-1.9-2.8-0.8-5.1,1.5-6.9c1.4-1.1,3.6-3.7,4.9-1.8c3.9,5.9,4.8,0.6,6.1-1.5
		c1.2-2,4.4-4.2,1.3-6.9c-2-1.7-4.5-2.8-6.9-4c-0.9-0.5-2-0.4-2.7,0.6c-0.7,1-0.3,1.9,0.4,2.7c0.6,0.7,1.8,1,1.9,2.5
		c-3.9,3.1-9.7,4.5-11.3,10.3c-0.8,1.7-0.8,3.3,0,4.9c1.7,5.1,6.2,7.2,10.6,9.2c10.1,4.7,20.9,6.9,31.8,8.3c4.5,0.6,6,2.5,6.7,6.8
		C63,140.3,66.2,153,74,163.7c8.4,11.5,18.9,11.4,27.4,0.1c3.2-4.3,5.5-9.1,7.4-14.1c0.9-2.5,1.7-5,2.6-7.6c0.3-0.9,0.3-2,1.8-2
		c5.4,0,5.5,0,2.5-5c-1.2-1.9-1.7-5.4-5.1-4.3c-2.5,0.8-4.7,2.5-6.9,3.9c-0.9,0.6-1.3,1.5-0.8,2.6c0.4,0.9,1.2,1.3,2,1
		c3.9-1.3,2.8,1.1,2.3,3.1c-1.7,5.8-3.8,11.4-6.9,16.5c-7.9,13.2-16.7,13.3-24.6,0c-5.8-9.7-8.4-20.6-10.6-31.6
		c-0.8-4.2,1.4-4.3,4.5-4c19.3,1.9,38.6,2,57.9,0.4c15.1-1.2,30.2-3.1,44.7-7.9c5.2-1.7,10.4-3.7,14.5-7.6
		C191.1,103.2,191,98,186.5,93.6z"/>
	<path class="st0" d="M82,103.5c-3.4-0.2-6.9-0.8-10.2,0.8l0,0c-1.1,0.9-1,1.8,0,2.7c5.3,1.2,10.6,1,15.9,0.1c2.1-0.5,3.4-1.9,3.9-4
		c0.7-4,0.6-7.9,0-11.9v0c-0.9-2-0.2-4.1,0.1-6.1c0.4-3.6,0.5-7.3-0.1-10.9c-0.3-2.2-1.7-3.8-3.7-4.3c-4.9-1.3-9.9-0.7-14.9-0.4
		c-1,0.1-1.9,0.9-1.8,2c0.1,1.2,1,1.7,2.1,1.8c2.8,0.1,5.7,0.4,8.5,0.2c5.1-0.4,6.1,2.1,6.1,6.6c0,4.3-1,6.5-5.9,6.3
		c-3.4-0.2-7-0.9-10.3,0.8l0,0c-1.1,1-1,1.9,0.1,2.8c0.3-0.1,0.7-0.2,1-0.2c-0.3,0.1-0.7,0.1-1,0.2c0.2,0.2,0.4,0.3,0.7,0.3l0,0
		c3.1,0.2,6.3,0.6,9.4,0.4c5-0.3,6.1,2.1,6,6.6C87.8,101.5,86.7,103.7,82,103.5z M81.2,87.6c0.4,0,0.8,0.1,1.3,0.1
		C82,87.7,81.6,87.7,81.2,87.6C81.2,87.6,81.2,87.6,81.2,87.6z M81.4,104.7c-0.1,0-0.3,0-0.4,0c0,0,0,0,0,0
		C81.1,104.7,81.2,104.7,81.4,104.7z"/>
	<path class="st0" d="M104.6,70.1c-3,1-4,3.4-4,6.2c0,8.1-0.1,16.3,0,24.4c0,3.3,1.4,5.8,5,6.4c3.7,0.7,7.4,0.7,11.1,0l0,0h0
		c2.9-0.3,4.6-2.2,4.9-4.9c0.3-3,0.3-6,0.2-9c-0.1-4.4-2.5-6.7-6.9-7c-2.2-0.1-4.3-0.1-6.5-0.1c-1.3-0.1-3.1,0-3.2-1.6
		c-0.3-3.8-1.8-8,1.6-11.3c4.6,0.2,9.2,0.6,13.7-0.3c1.3-0.9,1.4-1.9,0.2-3C115.3,68.9,109.9,68.8,104.6,70.1z M105.8,90.4
		c3.2-1.8,6.4-1.7,9.6,0c3.8,3.3,2.9,8,1.4,11.4c-1.5,3.4-5.9,1.5-9.1,1.5c-2.7,0-3.1-2.1-3-4.2C104.9,96.1,103.9,93,105.8,90.4z"/>
	<path class="st0" d="M153.9,68.9c1.2-0.1,1.8-0.9,1.6-2.1c-0.1-0.9-0.8-1.4-2-1.4c-0.8,0.2-1.5,0.9-1.3,2.1
		C152.2,68.4,152.9,69,153.9,68.9z"/>
	<path class="st0" d="M135.5,107.2c4,0.7,8,0.8,11.9-0.2c3.1-1.1,4.1-3.6,4.1-6.6c0-7.9,0-15.8,0-23.7c0-2.6-0.7-4.9-3.2-6.3
		c-4.9-1.7-9.9-1.7-14.8-0.1c-2.3,1.2-3.2,3.3-3.2,5.7c0,8.3-0.1,16.5,0,24.8C130.5,104.2,131.9,106.7,135.5,107.2z M147,101
		c-0.5,4-5.3,1.9-8.2,2.2c-2.2,0.2-4-0.6-4-3.3c0-7.8,0-15.6,0-23.5c0-1.5,1-2.4,2-3.3c2.9,0,5.8,0,8.7,0c0,0,0,0,0,0
		c0.5,0.6,1.5,1.2,1.6,1.9C147.9,83.8,148.1,92.5,147,101z"/>
</g>
</svg>
