<?xml version="1.0" encoding="UTF-8"?><svg id="Capa_2" xmlns="http://www.w3.org/2000/svg" viewBox="0 0 26.76 26.76"><defs><style>.cls-1{fill:#ff7c47;}</style></defs><g id="Capa_1-2"><path class="cls-1" d="m13.38,0C5.99,0,0,5.99,0,13.38s5.99,13.38,13.38,13.38,13.38-5.99,13.38-13.38S20.77,0,13.38,0Zm.31,22.94c-.07.1-.19.16-.31.16s-.24-.06-.31-.16c-.25-.33-6.08-8.23-6.08-12.88,0-3.52,2.86-6.39,6.39-6.39s6.39,2.87,6.39,6.39c0,4.65-5.83,12.55-6.08,12.88Z"/><path class="cls-1" d="m13.38,6.82c-1.79,0-3.24,1.45-3.24,3.24s1.46,3.24,3.24,3.24,3.24-1.46,3.24-3.24-1.45-3.24-3.24-3.24Z"/></g></svg>