<svg xmlns="http://www.w3.org/2000/svg" viewBox="0 0 149.53 75.82"><defs><style>.cls-1{fill:#fefefe;}.cls-2{fill:#fbbc1f;}</style></defs><g id="Capa_2" data-name="Capa 2"><g id="principal"><path class="cls-1" d="M16.67,48.87a7.54,7.54,0,0,0-7.57-7.5H0v24H9.9a7.55,7.55,0,0,0,7.57-7.52,7.43,7.43,0,0,0-1.94-5,7.33,7.33,0,0,0,1.14-4M6.1,46.58h3a2.29,2.29,0,1,1,0,4.58h-3ZM9.9,60.12H6.1V55.53H9.9a2.3,2.3,0,1,1,0,4.59"/><path class="cls-1" d="M30.53,40.92a12.54,12.54,0,0,0,0,25.07,12.54,12.54,0,0,0,0-25.07m0,18.56a6,6,0,0,1,0-12,6,6,0,0,1,0,12"/><path class="cls-1" d="M57.53,57.14h2.84v1.32a6.77,6.77,0,0,1-3.57,1,6,6,0,1,1,0-12,6.62,6.62,0,0,1,4.47,1.7l.63.58,4.4-4.8-.63-.58a13.12,13.12,0,0,0-8.87-3.42A12.54,12.54,0,1,0,56.8,66a13,13,0,0,0,3.57-.49v0h6.51V50.64H57.53Z"/><polygon class="cls-1" points="100.31 48.41 100.31 65.55 108.03 65.55 108.03 48.41 115.32 48.41 115.32 41.04 92.98 41.04 92.98 48.41 100.31 48.41"/><polygon class="cls-1" points="149.53 75.83 134.75 36.52 121.48 36.52 110.61 65.5 118.66 65.5 128.09 41.66 141.48 75.83 149.53 75.83"/><path class="cls-1" d="M91.11,47.54v0a12.08,12.08,0,0,0-10.66-6.6,12.54,12.54,0,1,0,12.1,12.53,12.77,12.77,0,0,0-1.43-5.91M80.44,59.48a6,6,0,1,1,5.59-6,5.83,5.83,0,0,1-5.59,6"/><polygon class="cls-2" points="138.13 23.78 145.37 20.81 135.73 17.36 129.55 0.83 123.15 13.01 110.07 10.32 119.3 20.31 114.8 32.4 131.04 26.57 142.89 36.52 138.13 23.78"/><polygon class="cls-2" points="111.11 24.43 114.08 22.52 110.52 21.77 109.5 18.23 108.09 21.25 102.7 20.11 106.91 24.45 105.62 27.95 109.41 25.52 112.33 27.89 111.11 24.43"/><polygon class="cls-2" points="143.18 6.48 146.28 4.49 142.57 3.7 141.51 0 139.71 3.09 134.41 1.96 138.8 6.49 137.46 10.15 141.41 7.62 144.46 10.09 143.18 6.48"/></g></g></svg>