<?xml version="1.0" encoding="UTF-8"?><svg id="Capa_2" xmlns="http://www.w3.org/2000/svg" viewBox="0 0 123.43 123.45"><defs><style>.cls-1{fill:#fff;}</style></defs><g id="Capa_1-2"><g><path class="cls-1" d="M53.11,52.62c-.85,0-1.54,.69-1.54,1.54v6.08c0,.85,.69,1.54,1.54,1.54s1.54-.69,1.54-1.54v-6.08c0-.85-.69-1.54-1.54-1.54"/><path class="cls-1" d="M61.93,52.62c-.85,0-1.54,.69-1.54,1.54v6.08c0,.85,.69,1.54,1.54,1.54s1.54-.69,1.54-1.54v-6.08c0-.85-.69-1.54-1.54-1.54"/><path class="cls-1" d="M70.75,52.62c-.85,0-1.54,.69-1.54,1.54v6.08c0,.85,.69,1.54,1.54,1.54s1.54-.69,1.54-1.54v-6.08c0-.85-.69-1.54-1.54-1.54"/><path class="cls-1" d="M53.11,68.64c-.85,0-1.54,.69-1.54,1.54v6.08c0,.85,.69,1.54,1.54,1.54s1.54-.69,1.54-1.54v-6.08c0-.85-.69-1.54-1.54-1.54"/><path class="cls-1" d="M61.93,68.64c-.85,0-1.54,.69-1.54,1.54v6.08c0,.85,.69,1.54,1.54,1.54s1.54-.69,1.54-1.54v-6.08c0-.85-.69-1.54-1.54-1.54"/><path class="cls-1" d="M70.75,68.64c-.85,0-1.54,.69-1.54,1.54v6.08c0,.85,.69,1.54,1.54,1.54s1.54-.69,1.54-1.54v-6.08c0-.85-.69-1.54-1.54-1.54"/><path class="cls-1" d="M53.11,36.69c-.85,0-1.54,.69-1.54,1.54v6.08c0,.85,.69,1.54,1.54,1.54s1.54-.69,1.54-1.54v-6.08c0-.85-.69-1.54-1.54-1.54"/><path class="cls-1" d="M61.93,36.69c-.85,0-1.54,.69-1.54,1.54v6.08c0,.85,.69,1.54,1.54,1.54s1.54-.69,1.54-1.54v-6.08c0-.85-.69-1.54-1.54-1.54"/><path class="cls-1" d="M70.75,36.69c-.85,0-1.54,.69-1.54,1.54v6.08c0,.85,.69,1.54,1.54,1.54s1.54-.69,1.54-1.54v-6.08c0-.85-.69-1.54-1.54-1.54"/><path class="cls-1" d="M53.11,20.68c-.85,0-1.54,.69-1.54,1.54v6.08c0,.85,.69,1.54,1.54,1.54s1.54-.69,1.54-1.54v-6.08c0-.85-.69-1.54-1.54-1.54"/><path class="cls-1" d="M61.93,20.68c-.85,0-1.54,.69-1.54,1.54v6.08c0,.85,.69,1.54,1.54,1.54s1.54-.69,1.54-1.54v-6.08c0-.85-.69-1.54-1.54-1.54"/><path class="cls-1" d="M70.75,20.68c-.85,0-1.54,.69-1.54,1.54v6.08c0,.85,.69,1.54,1.54,1.54s1.54-.69,1.54-1.54v-6.08c0-.85-.69-1.54-1.54-1.54"/><path class="cls-1" d="M53.11,84.65c-.85,0-1.54,.69-1.54,1.54v6.08c0,.85,.69,1.54,1.54,1.54s1.54-.69,1.54-1.54v-6.08c0-.85-.69-1.54-1.54-1.54"/><path class="cls-1" d="M61.93,84.65c-.85,0-1.54,.69-1.54,1.54v6.08c0,.85,.69,1.54,1.54,1.54s1.54-.69,1.54-1.54v-6.08c0-.85-.69-1.54-1.54-1.54"/><path class="cls-1" d="M70.75,84.65c-.85,0-1.54,.69-1.54,1.54v6.08c0,.85,.69,1.54,1.54,1.54s1.54-.69,1.54-1.54v-6.08c0-.85-.69-1.54-1.54-1.54"/><path class="cls-1" d="M53.11,100.67c-.85,0-1.54,.69-1.54,1.54v6.08c0,.85,.69,1.54,1.54,1.54s1.54-.69,1.54-1.54v-6.08c0-.85-.69-1.54-1.54-1.54"/><path class="cls-1" d="M61.93,100.67c-.85,0-1.54,.69-1.54,1.54v6.08c0,.85,.69,1.54,1.54,1.54s1.54-.69,1.54-1.54v-6.08c0-.85-.69-1.54-1.54-1.54"/><path class="cls-1" d="M70.75,100.67c-.85,0-1.54,.69-1.54,1.54v6.08c0,.85,.69,1.54,1.54,1.54s1.54-.69,1.54-1.54v-6.08c0-.85-.69-1.54-1.54-1.54"/><path class="cls-1" d="M36.96,39.68H4.18c-.85,0-1.54,.69-1.54,1.54V120.27H1.54C.69,120.27,0,120.96,0,121.81c0,.85,.69,1.54,1.54,1.54l120.34,.1h0c.85,0,1.54-.69,1.54-1.54,0-.85-.69-1.54-1.54-1.54h-1.09V22.22c0-.85-.69-1.54-1.54-1.54h-32.78c-.85,0-1.54,.69-1.54,1.54V120.33h-5.28V1.54c0-.85-.69-1.54-1.54-1.54H45.33c-.85,0-1.54,.69-1.54,1.54V120.3h-5.28V41.23c0-.85-.69-1.54-1.54-1.54m-31.23,3.09h29.69V120.29l-29.69-.02V42.77ZM88.02,23.77h29.69V120.36l-29.69-.02V23.77ZM46.87,3.09h29.69V120.32l-29.69-.02V3.09Z"/><path class="cls-1" d="M11.75,52.62c-.85,0-1.54,.69-1.54,1.54v6.08c0,.85,.69,1.54,1.54,1.54s1.54-.69,1.54-1.54v-6.08c0-.85-.69-1.54-1.54-1.54"/><path class="cls-1" d="M20.57,52.62c-.85,0-1.54,.69-1.54,1.54v6.08c0,.85,.69,1.54,1.54,1.54s1.54-.69,1.54-1.54v-6.08c0-.85-.69-1.54-1.54-1.54"/><path class="cls-1" d="M29.39,52.62c-.85,0-1.54,.69-1.54,1.54v6.08c0,.85,.69,1.54,1.54,1.54s1.54-.69,1.54-1.54v-6.08c0-.85-.69-1.54-1.54-1.54"/><path class="cls-1" d="M11.75,68.64c-.85,0-1.54,.69-1.54,1.54v6.08c0,.85,.69,1.54,1.54,1.54s1.54-.69,1.54-1.54v-6.08c0-.85-.69-1.54-1.54-1.54"/><path class="cls-1" d="M20.57,68.64c-.85,0-1.54,.69-1.54,1.54v6.08c0,.85,.69,1.54,1.54,1.54s1.54-.69,1.54-1.54v-6.08c0-.85-.69-1.54-1.54-1.54"/><path class="cls-1" d="M29.39,68.64c-.85,0-1.54,.69-1.54,1.54v6.08c0,.85,.69,1.54,1.54,1.54s1.54-.69,1.54-1.54v-6.08c0-.85-.69-1.54-1.54-1.54"/><path class="cls-1" d="M11.75,84.65c-.85,0-1.54,.69-1.54,1.54v6.08c0,.85,.69,1.54,1.54,1.54s1.54-.69,1.54-1.54v-6.08c0-.85-.69-1.54-1.54-1.54"/><path class="cls-1" d="M20.57,84.65c-.85,0-1.54,.69-1.54,1.54v6.08c0,.85,.69,1.54,1.54,1.54s1.54-.69,1.54-1.54v-6.08c0-.85-.69-1.54-1.54-1.54"/><path class="cls-1" d="M29.39,84.65c-.85,0-1.54,.69-1.54,1.54v6.08c0,.85,.69,1.54,1.54,1.54s1.54-.69,1.54-1.54v-6.08c0-.85-.69-1.54-1.54-1.54"/><path class="cls-1" d="M11.75,100.67c-.85,0-1.54,.69-1.54,1.54v6.08c0,.85,.69,1.54,1.54,1.54s1.54-.69,1.54-1.54v-6.08c0-.85-.69-1.54-1.54-1.54"/><path class="cls-1" d="M20.57,100.67c-.85,0-1.54,.69-1.54,1.54v6.08c0,.85,.69,1.54,1.54,1.54s1.54-.69,1.54-1.54v-6.08c0-.85-.69-1.54-1.54-1.54"/><path class="cls-1" d="M29.39,100.67c-.85,0-1.54,.69-1.54,1.54v6.08c0,.85,.69,1.54,1.54,1.54s1.54-.69,1.54-1.54v-6.08c0-.85-.69-1.54-1.54-1.54"/><path class="cls-1" d="M94.04,36.69c-.85,0-1.54,.69-1.54,1.54v6.08c0,.85,.69,1.54,1.54,1.54s1.54-.69,1.54-1.54v-6.08c0-.85-.69-1.54-1.54-1.54"/><path class="cls-1" d="M102.86,36.69c-.85,0-1.54,.69-1.54,1.54v6.08c0,.85,.69,1.54,1.54,1.54s1.54-.69,1.54-1.54v-6.08c0-.85-.69-1.54-1.54-1.54"/><path class="cls-1" d="M111.68,36.69c-.85,0-1.54,.69-1.54,1.54v6.08c0,.85,.69,1.54,1.54,1.54s1.54-.69,1.54-1.54v-6.08c0-.85-.69-1.54-1.54-1.54"/><path class="cls-1" d="M94.04,52.62c-.85,0-1.54,.69-1.54,1.54v6.08c0,.85,.69,1.54,1.54,1.54s1.54-.69,1.54-1.54v-6.08c0-.85-.69-1.54-1.54-1.54"/><path class="cls-1" d="M102.86,52.62c-.85,0-1.54,.69-1.54,1.54v6.08c0,.85,.69,1.54,1.54,1.54s1.54-.69,1.54-1.54v-6.08c0-.85-.69-1.54-1.54-1.54"/><path class="cls-1" d="M111.68,52.62c-.85,0-1.54,.69-1.54,1.54v6.08c0,.85,.69,1.54,1.54,1.54s1.54-.69,1.54-1.54v-6.08c0-.85-.69-1.54-1.54-1.54"/><path class="cls-1" d="M94.04,68.64c-.85,0-1.54,.69-1.54,1.54v6.08c0,.85,.69,1.54,1.54,1.54s1.54-.69,1.54-1.54v-6.08c0-.85-.69-1.54-1.54-1.54"/><path class="cls-1" d="M102.86,68.64c-.85,0-1.54,.69-1.54,1.54v6.08c0,.85,.69,1.54,1.54,1.54s1.54-.69,1.54-1.54v-6.08c0-.85-.69-1.54-1.54-1.54"/><path class="cls-1" d="M111.68,68.64c-.85,0-1.54,.69-1.54,1.54v6.08c0,.85,.69,1.54,1.54,1.54s1.54-.69,1.54-1.54v-6.08c0-.85-.69-1.54-1.54-1.54"/><path class="cls-1" d="M94.04,84.65c-.85,0-1.54,.69-1.54,1.54v6.08c0,.85,.69,1.54,1.54,1.54s1.54-.69,1.54-1.54v-6.08c0-.85-.69-1.54-1.54-1.54"/><path class="cls-1" d="M102.86,84.65c-.85,0-1.54,.69-1.54,1.54v6.08c0,.85,.69,1.54,1.54,1.54s1.54-.69,1.54-1.54v-6.08c0-.85-.69-1.54-1.54-1.54"/><path class="cls-1" d="M111.68,84.65c-.85,0-1.54,.69-1.54,1.54v6.08c0,.85,.69,1.54,1.54,1.54s1.54-.69,1.54-1.54v-6.08c0-.85-.69-1.54-1.54-1.54"/><path class="cls-1" d="M94.04,100.67c-.85,0-1.54,.69-1.54,1.54v6.08c0,.85,.69,1.54,1.54,1.54s1.54-.69,1.54-1.54v-6.08c0-.85-.69-1.54-1.54-1.54"/><path class="cls-1" d="M102.86,100.67c-.85,0-1.54,.69-1.54,1.54v6.08c0,.85,.69,1.54,1.54,1.54s1.54-.69,1.54-1.54v-6.08c0-.85-.69-1.54-1.54-1.54"/><path class="cls-1" d="M111.68,100.67c-.85,0-1.54,.69-1.54,1.54v6.08c0,.85,.69,1.54,1.54,1.54s1.54-.69,1.54-1.54v-6.08c0-.85-.69-1.54-1.54-1.54"/></g></g></svg>