<svg xmlns="http://www.w3.org/2000/svg" xmlns:xlink="http://www.w3.org/1999/xlink" viewBox="0 0 29.87 29.87"><defs><style>.cls-1{fill:url(#Degradado_sin_nombre_31);}.cls-2{fill:#fff;}</style><linearGradient id="Degradado_sin_nombre_31" x1="7.47" y1="27.87" x2="22.41" y2="2" gradientUnits="userSpaceOnUse"><stop offset="0.01" stop-color="#2060af"/><stop offset="1" stop-color="#46a6de"/></linearGradient></defs><title>email</title><g id="Capa_2" data-name="Capa 2"><g id="Capa_1-2" data-name="Capa 1"><circle class="cls-1" cx="14.94" cy="14.94" r="14.94"/><path class="cls-2" d="M6.78,8.75a1.34,1.34,0,0,0-1.35,1.32V19.8a1.35,1.35,0,0,0,1.35,1.33H23.09a1.35,1.35,0,0,0,1.35-1.33V10.07a1.34,1.34,0,0,0-1.35-1.32ZM7,9.63H22.87l-7.55,6.74a.65.65,0,0,1-.77,0Zm-.69.57,5.51,4.93L6.32,19.7Zm17.24,0v9.5L18,15.13ZM12.5,15.73,14,17a1.48,1.48,0,0,0,1.95,0l1.46-1.3,5.45,4.51H7.05l5.45-4.51Z"/></g></g></svg>