<svg xmlns="http://www.w3.org/2000/svg" viewBox="0 0 9.61 20.68"><defs><style>.cls-1{fill-rule:evenodd;}</style></defs><title>facebook</title><g id="Capa_2" data-name="Capa 2"><g id="Capa_1-2" data-name="Capa 1"><path fill="#FFFFFF" class="cls-1" d="M2.12,10.42v10a.25.25,0,0,0,.26.26H6.09a.25.25,0,0,0,.26-.26V10.26H9A.25.25,0,0,0,9.3,10L9.56,7a.25.25,0,0,0-.26-.28h-3V4.51a.93.93,0,0,1,.92-.93H9.35a.26.26,0,0,0,.26-.26V.26A.26.26,0,0,0,9.35,0H5.84A3.73,3.73,0,0,0,2.12,3.73V6.68H.26A.26.26,0,0,0,0,6.94V10a.26.26,0,0,0,.26.26H2.12Z"/></g></g></svg>