<svg xmlns="http://www.w3.org/2000/svg" viewBox="0 0 21.11 21.11"><title>instagram</title><g id="Capa_2" data-name="Capa 2"><g id="Capa_1-2" data-name="Capa 1"><path fill="#FFFFFF" d="M17.37,4.92a1.23,1.23,0,1,1-1.23-1.23A1.23,1.23,0,0,1,17.37,4.92Zm-1.53,5.49A5.15,5.15,0,1,1,10.7,5.26,5.15,5.15,0,0,1,15.84,10.41Zm-1.85,0A3.3,3.3,0,1,0,10.7,13.7,3.3,3.3,0,0,0,14,10.41Zm7.12-4.14A6.27,6.27,0,0,0,14.84,0H6.27A6.27,6.27,0,0,0,0,6.27v8.57a6.27,6.27,0,0,0,6.27,6.27h8.57a6.27,6.27,0,0,0,6.27-6.27Zm-2.06,8.47a4.31,4.31,0,0,1-4.31,4.31H6.37a4.31,4.31,0,0,1-4.31-4.31V6.37A4.31,4.31,0,0,1,6.37,2.06h8.37a4.31,4.31,0,0,1,4.31,4.31Z"/></g></g></svg>