<?xml version="1.0" encoding="UTF-8"?><svg id="Capa_2" xmlns="http://www.w3.org/2000/svg" viewBox="0 0 149.53 75.82"><defs><style>.cls-1{fill:#fbbc1f;}.cls-2{fill:#fefefe;}</style></defs><g id="Capa_1-2"><path class="cls-2" d="M16.67,48.87c0-4.13-3.4-7.51-7.57-7.51H0v23.97H9.9c4.18,0,7.57-3.37,7.57-7.51,0-1.84-.7-3.63-1.94-5.01,.75-1.18,1.14-2.54,1.14-3.94m-10.58-2.29h3.01c1.3,0,2.35,1.03,2.35,2.29s-1.05,2.29-2.35,2.29h-3.01v-4.58Zm3.81,13.53h-3.81v-4.59h3.81c1.29,0,2.35,1.04,2.35,2.3s-1.05,2.29-2.35,2.29"/><path class="cls-2" d="M30.53,40.92c-6.68,0-12.11,5.63-12.11,12.53s5.43,12.54,12.11,12.54,12.1-5.61,12.1-12.54-5.43-12.53-12.1-12.53m0,18.56c-3.08,0-5.59-2.7-5.59-6.03s2.51-6.02,5.59-6.02,5.59,2.7,5.59,6.02-2.51,6.03-5.59,6.03"/><path class="cls-2" d="M57.53,57.14h2.84v1.31c-1.05,.66-2.31,1.02-3.57,1.02-3.53,0-6.41-2.7-6.41-6.03s2.88-6.02,6.41-6.02c1.68,0,3.26,.61,4.47,1.71l.63,.58,4.4-4.8-.63-.58c-2.41-2.2-5.56-3.42-8.87-3.42-7.12,0-12.92,5.63-12.92,12.53s5.8,12.54,12.92,12.54c1.21,0,2.41-.16,3.57-.49v.05h6.52v-14.92h-9.36v6.51Z"/><polygon class="cls-2" points="100.31 48.41 100.31 65.55 108.03 65.55 108.03 48.41 115.32 48.41 115.32 41.04 92.98 41.04 92.98 48.41 100.31 48.41"/><polygon class="cls-2" points="149.53 75.82 134.75 36.52 121.48 36.52 110.61 65.5 118.66 65.5 128.09 41.66 141.48 75.82 149.53 75.82"/><path class="cls-2" d="M91.11,47.54v-.03c-2.06-3.92-6.07-6.59-10.67-6.59-6.68,0-12.1,5.63-12.1,12.53s5.43,12.54,12.1,12.54,12.11-5.61,12.11-12.54c0-2.13-.52-4.14-1.43-5.91m-10.67,11.94c-3.08,0-5.59-2.7-5.59-6.03s2.51-6.02,5.59-6.02,5.59,2.7,5.59,6.02-2.51,6.03-5.59,6.03"/><polygon class="cls-1" points="138.13 23.78 145.37 20.81 135.73 17.36 129.55 .84 123.15 13.01 110.07 10.32 119.3 20.31 114.8 32.4 131.04 26.57 142.89 36.52 138.13 23.78"/><polygon class="cls-1" points="111.11 24.43 114.08 22.52 110.52 21.77 109.5 18.23 108.09 21.25 102.71 20.1 106.91 24.45 105.62 27.95 109.41 25.52 112.33 27.89 111.11 24.43"/><polygon class="cls-1" points="143.18 6.48 146.28 4.49 142.57 3.7 141.51 0 139.71 3.09 134.41 1.96 138.8 6.49 137.46 10.15 141.4 7.62 144.46 10.09 143.18 6.48"/></g></svg>