<?xml version="1.0" encoding="UTF-8"?><svg id="Capa_2" xmlns="http://www.w3.org/2000/svg" xmlns:xlink="http://www.w3.org/1999/xlink" viewBox="0 0 313.45 217.15"><defs><style>.cls-1{fill:url(#Degradado_sin_nombre_10-10);}.cls-2{letter-spacing:.12em;}.cls-3{font-size:25.66px;}.cls-3,.cls-4,.cls-5{fill:#fff;}.cls-3,.cls-5{font-family:DKCarambola, 'DK Carambola';}.cls-6{letter-spacing:.04em;}.cls-7{fill:url(#Degradado_sin_nombre_10-12);}.cls-8{clip-path:url(#clippath-20);}.cls-9{clip-path:url(#clippath-11);}.cls-10{clip-path:url(#clippath-16);}.cls-11{letter-spacing:.12em;}.cls-12{fill:url(#Degradado_sin_nombre_10-7);}.cls-13{fill:url(#Degradado_sin_nombre_10-8);}.cls-14{fill:url(#Degradado_sin_nombre_10-19);}.cls-15{letter-spacing:.32em;}.cls-16{fill:url(#Degradado_sin_nombre_10-3);}.cls-17{fill:url(#Degradado_sin_nombre_10-23);}.cls-18{clip-path:url(#clippath-2);}.cls-19{clip-path:url(#clippath-13);}.cls-20{clip-path:url(#clippath-25);}.cls-21{fill:url(#Degradado_sin_nombre_10-21);}.cls-22{clip-path:url(#clippath-15);}.cls-23{fill:url(#Degradado_sin_nombre_10-16);}.cls-24{clip-path:url(#clippath-6);}.cls-25{fill:url(#Degradado_sin_nombre_10-22);}.cls-26{clip-path:url(#clippath-26);}.cls-27{fill:url(#Degradado_sin_nombre_10-4);}.cls-28{clip-path:url(#clippath-7);}.cls-29{clip-path:url(#clippath-21);}.cls-30{fill:url(#Degradado_sin_nombre_10-2);}.cls-31{clip-path:url(#clippath-1);}.cls-32{clip-path:url(#clippath-4);}.cls-33{letter-spacing:.3em;}.cls-34{fill:url(#Degradado_sin_nombre_10-27);}.cls-35{fill:url(#Degradado_sin_nombre_10-20);}.cls-36{fill:url(#Degradado_sin_nombre_10-24);}.cls-37{fill:url(#Degradado_sin_nombre_10);}.cls-38{clip-path:url(#clippath-12);}.cls-39{clip-path:url(#clippath-24);}.cls-40{fill:url(#Degradado_sin_nombre_10-25);}.cls-41{clip-path:url(#clippath-22);}.cls-42{letter-spacing:.27em;}.cls-43{clip-path:url(#clippath-9);}.cls-44{fill:url(#Degradado_sin_nombre_10-18);}.cls-45{clip-path:url(#clippath);}.cls-46{fill:url(#Degradado_sin_nombre_10-5);}.cls-5{font-size:49.15px;}.cls-47{fill:none;}.cls-48{fill:url(#Degradado_sin_nombre_10-17);}.cls-49{clip-path:url(#clippath-19);}.cls-50{clip-path:url(#clippath-3);}.cls-51{fill:url(#Degradado_sin_nombre_10-14);}.cls-52{letter-spacing:.07em;}.cls-53{fill:url(#Degradado_sin_nombre_10-13);}.cls-54{clip-path:url(#clippath-8);}.cls-55{letter-spacing:.07em;}.cls-56{letter-spacing:.32em;}.cls-57{clip-path:url(#clippath-18);}.cls-58{clip-path:url(#clippath-14);}.cls-59{clip-path:url(#clippath-17);}.cls-60{letter-spacing:.2em;}.cls-61{clip-path:url(#clippath-5);}.cls-62{fill:url(#Degradado_sin_nombre_10-9);}.cls-63{letter-spacing:.12em;}.cls-64{clip-path:url(#clippath-10);}.cls-65{fill:url(#Degradado_sin_nombre_10-26);}.cls-66{clip-path:url(#clippath-23);}.cls-67{fill:url(#Degradado_sin_nombre_10-11);}.cls-68{letter-spacing:.25em;}.cls-69{fill:url(#Degradado_sin_nombre_10-6);}.cls-70{fill:url(#Degradado_sin_nombre_10-15);}.cls-71{letter-spacing:.17em;}.cls-72{letter-spacing:.17em;}</style><clipPath id="clippath"><path class="cls-47" d="m130.55,108.57c.1.06.2.12.3.19,0-.09-.14-.18-.3-.25,0,.02,0,.04,0,.06m31.55-36.19c-2.45,1.32-4.89,2.65-7.43,3.78-1.95.86-4.07,1.37-6.2.93-2.23-.46-4.32-1.4-6.27-2.55-1.86-1.1-3.48-2.54-5.46-3.44-1.83-.83-3.81-1.31-5.84-1.1-4.4.46-8.26,3.45-12.08,5.48-2.04,1.08-4.09,2.15-6.1,3.28-1.77.99-3.43,2.19-5.25,3.07-1.66.81-3.33,1.74-3.67,3.72-.35,2.07.9,3.87,1.94,5.55,1.03,1.66,2.11,3.54,4.43,2.84,1.81-.54,2.48-2.68,4.51-2.59,4,.18,6.33,4.21,9.74,5.74,3.98,1.79,8.01-.9,11.37-2.9,3-1.78,5.94-3.67,9.06-5.25,1.28-.65,2.6-1.28,4.01-1.57.37-.08.66-.1,1.3.15.94.36,1.8,1.01,2.58,1.62,1.79,1.41,3.61,2.8,5.42,4.19,1.74,1.34,3.31,2.74,5.38,3.55,2.04.79,4.12,1.08,6.28.61,2.09-.45,4.15-1.6,5.92-2.77,3.29-2.16,6.14-5.01,9.88-6.42,1.93-.72,3.54-.48,5.39.37,1.84.84,3.27,2.55,4.79,3.86,1.18,1.02,2.36,2.03,3.52,3.07-1.45,1.23-2.86,2.51-4.31,3.76-2.03,1.75-4.27,3.23-6.59,4.57-1.85,1.07-3.99,2.48-6.02,2.07-2.43-.49-4.54-2.23-6.53-3.61-2.1-1.45-4.35-3-6.9-3.5-2.67-.53-5.2.26-7.6,1.41-4.66,2.23-8.91,6.41-14.43,4.74-2.44-.74-4.61-2.18-6.97-3.14-2.52-1.03-5.38-1.54-8.07-.91-2.59.61-4.48,2.51-4.94,5.13-.39,2.22-.44,4.42,1.63,5.75,3.49,2.25,7.63,3.81,11.5,5.28,1.54.58,2.96,1.16,4.63.87,2.59-.44,4.61-2.26,7.03-3.1,3.15-1.1,4.87,1.32,7.02,3.18,2.22,1.91,5.29,4.18,8.42,3.51,2.32-.5,4.64-2.11,6.59-3.42,1.14-.76,2.17-1.67,3.3-2.45,1.17-.8,2.36-1.1,3.77-1.2,2.2-.15,2.23-3.57,0-3.46-2.49.13-4.51.8-6.52,2.27-1.82,1.33-3.7,2.52-5.71,3.55-.69.36-1.66.96-2.45,1-1.1.06-2.31-.75-3.19-1.34-2.18-1.48-3.79-3.77-6.15-4.98-2.41-1.23-5.06-.9-7.45.2-1.17.54-2.27,1.2-3.43,1.77-.49.24-.97.46-1.5.61-.18.05-.37.1-.55.14-.08.02-.13.03-.18.04,0,0-.02,0-.04,0-1.39-.19-2.85-.95-4.13-1.47-1.97-.79-3.93-1.65-5.84-2.57-.84-.41-1.68-.83-2.49-1.29-.12-.07-.24-.16-.37-.25,0,.06-.07.12-.24.17-.03,0-.05-.2-.06-.36-.07-.04-.14-.07-.21-.1-.44-.16-.09-.1.2.03,0-.05,0-.08,0-.09.08-.83,0-1.74.39-2.5.46-.89,1.5-1.25,2.44-1.37,5.08-.68,9.15,3.56,13.93,4.42,5.59,1.01,9.93-2.24,14.64-4.68,1.88-.98,4.11-2.09,6.28-1.56,2.32.56,4.31,2.16,6.23,3.51,2.26,1.59,4.68,3.32,7.47,3.76,2.83.45,5.32-.76,7.77-2.05,2.63-1.39,5.15-3,7.49-4.84,2.38-1.87,4.52-4.01,6.89-5.89.88-.71.78-2.32,0-3.04-1.73-1.59-3.56-3.07-5.35-4.6-1.56-1.32-3.02-2.97-4.77-4.03-1.51-.92-3.33-1.52-5.07-1.79-2.38-.36-4.6.51-6.7,1.55-3.37,1.66-6.04,4.33-9.21,6.29-1.65,1.02-3.63,2.16-5.64,2.06-1.74-.08-3.4-.92-4.74-1.97-1.72-1.35-3.47-2.66-5.2-3.99-1.71-1.32-3.35-2.83-5.34-3.72-3.03-1.36-5.86-.17-8.66,1.2-3.07,1.5-5.97,3.35-8.89,5.12-1.48.89-2.96,1.8-4.51,2.57-.84.42-1.79.86-2.74.89-.82.03-1.49-.36-2.17-.8-1.6-1.03-2.93-2.44-4.5-3.51-1.63-1.11-3.58-1.85-5.55-2.01-1.96-.16-3.74.51-5.15,1.88-.07.06-.25.21-.44.37-.5-.86-1.13-1.66-1.55-2.57-.2-.43-.35-.68-.1-1.02.39-.54,1.65-.85,2.23-1.16,1.73-.9,3.35-2.05,5.07-3,3.87-2.15,7.82-4.13,11.65-6.34,1.66-.96,3.45-1.75,5.41-1.68,1.9.07,3.62,1.11,5.12,2.18,3.5,2.49,7.28,4.7,11.63,5.2,6.86.77,12.59-4.68,18.58-7.01,3.62-1.41,6.44.08,9.55,2,3.19,1.98,6.89,4.01,10.66,4.51,1.87.25,3.63-.39,5.22-1.34,1.42-.84,2.73-2.07,4.28-2.67,1.32-.51,2.36.68,3.25,1.55,1.35,1.3,2.62,2.68,4.02,3.93.88.78,1.75,1.67,2.7,2.37,1,.74,2.12,1.36,3.16,2.04.93.61,2.28-.64,1.58-1.58-.73-.99-1.42-2.05-2.19-3.01-.84-1.05-1.92-1.99-2.88-2.93-1.34-1.32-2.64-2.71-4.01-4-1.34-1.25-2.98-2.52-4.89-2.55-1.75-.02-3.43.99-4.83,1.91-1.29.84-2.74,2.13-4.33,2.27-1.71.15-3.77-.95-5.27-1.66-3.63-1.73-6.97-4.7-11.01-5.4-.62-.11-1.23-.16-1.83-.16-3.07,0-5.83,1.33-8.58,2.82"/></clipPath><linearGradient id="Degradado_sin_nombre_10" x1="1726.24" y1="-260.65" x2="1726.94" y2="-260.65" gradientTransform="translate(472314.19 71373.52) rotate(-180) scale(273.45 -273.45)" gradientUnits="userSpaceOnUse"><stop offset="0" stop-color="#987516"/><stop offset=".22" stop-color="#dcbe7f"/><stop offset=".49" stop-color="#987516"/><stop offset=".65" stop-color="#c7a85f"/><stop offset=".73" stop-color="#dcbe7f"/><stop offset="1" stop-color="#987516"/></linearGradient><clipPath id="clippath-1"><path class="cls-47" d="m166.49,110.57s0,.06,0,.07c0-.02,0-.05,0-.07m-1.13-2.06c-.44.28-.77.74-.88,1.25-.06.28-.05.54.02.77-.07.25-.08.53-.03.82.12.69.82,1.23,1.46,1.43.6.18,1.28.14,1.82-.18,1.1-.64,1.46-2.22.7-3.25-.48-.65-1.27-1.13-2.08-1.13-.34,0-.69.09-1.01.29"/></clipPath><linearGradient id="Degradado_sin_nombre_10-2" x1="1726.24" y1="-260.68" x2="1726.94" y2="-260.68" gradientTransform="translate(472335.27 71398.27) rotate(-180) scale(273.45 -273.45)" xlink:href="#Degradado_sin_nombre_10"/><clipPath id="clippath-2"><path class="cls-47" d="m148.1,97.06s0,.06,0,.07c0-.02,0-.05,0-.07m-1.13-2.06c-.44.28-.77.74-.88,1.25-.06.28-.05.54.02.77-.07.25-.08.53-.03.82.12.69.82,1.23,1.46,1.43.6.18,1.28.14,1.82-.18,1.1-.64,1.46-2.22.7-3.24-.48-.65-1.28-1.13-2.08-1.13-.34,0-.69.09-1.01.29"/></clipPath><linearGradient id="Degradado_sin_nombre_10-3" x1="1726.24" y1="-260.65" x2="1726.94" y2="-260.65" gradientTransform="translate(472307.17 71376.12) rotate(-180) scale(273.45 -273.45)" xlink:href="#Degradado_sin_nombre_10"/><clipPath id="clippath-3"><path class="cls-47" d="m128.09,83.16s0,.06,0,.07c0-.02,0-.05,0-.07m-1.13-2.06c-.44.28-.77.74-.88,1.25-.06.28-.05.54.02.77-.07.25-.08.53-.03.82.12.69.82,1.23,1.46,1.43.6.19,1.28.14,1.82-.18,1.1-.64,1.46-2.22.7-3.25-.48-.65-1.27-1.13-2.07-1.13-.34,0-.69.09-1.01.29"/></clipPath><linearGradient id="Degradado_sin_nombre_10-4" x1="1726.24" y1="-260.62" x2="1726.94" y2="-260.62" gradientTransform="translate(472277.96 71349.15) rotate(180) scale(273.45 -273.45)" xlink:href="#Degradado_sin_nombre_10"/><clipPath id="clippath-4"><path class="cls-47" d="m170.95,83.16s0,.06,0,.07c0-.02,0-.05,0-.07m-1.13-2.06c-.44.28-.77.74-.88,1.25-.06.28-.05.54.02.77-.07.25-.08.53-.03.82.12.69.82,1.23,1.46,1.43.6.19,1.28.14,1.82-.18,1.1-.64,1.46-2.22.7-3.25-.48-.65-1.27-1.13-2.08-1.13-.34,0-.69.09-1.01.29"/></clipPath><linearGradient id="Degradado_sin_nombre_10-5" x1="1726.24" y1="-260.68" x2="1726.94" y2="-260.68" gradientTransform="translate(472312.54 71366.73) rotate(180) scale(273.45 -273.45)" xlink:href="#Degradado_sin_nombre_10"/><clipPath id="clippath-5"><path class="cls-47" d="m186.18,96.1s0,.06,0,.07c0-.02,0-.05,0-.07h0m-1.13-2.06c-.44.28-.77.74-.88,1.25-.06.28-.05.54.02.77-.07.25-.08.53-.03.82.12.69.82,1.23,1.46,1.43.6.19,1.28.14,1.82-.18,1.1-.64,1.46-2.22.7-3.25-.48-.65-1.27-1.13-2.08-1.13-.34,0-.69.09-1.01.29"/></clipPath><linearGradient id="Degradado_sin_nombre_10-6" x1="1726.24" y1="-260.71" x2="1726.94" y2="-260.71" gradientTransform="translate(472337.21 71389.07) rotate(-180) scale(273.45 -273.45)" xlink:href="#Degradado_sin_nombre_10"/><clipPath id="clippath-6"><path class="cls-47" d="m113.51,98.54c1.22,1.6,2.52,3.05,4.07,4.34,1.36,1.13,3.2,2.93,5.06,2.89,1.06-.02,1.76-1.18,1.21-2.12-.84-1.44-2.84-2.16-4.17-3.13-1.46-1.06-2.84-2.29-4.12-3.56-.25-.24-.55-.35-.85-.35-.94,0-1.89,1.01-1.2,1.92"/></clipPath><linearGradient id="Degradado_sin_nombre_10-7" x1="1726.24" y1="-260.61" x2="1726.94" y2="-260.61" gradientTransform="translate(472287.83 71364.22) rotate(180) scale(273.45 -273.45)" xlink:href="#Degradado_sin_nombre_10"/><clipPath id="clippath-7"><path class="cls-47" d="m166.93,17.62s.01.04,0,.04c0,0-.01,0,0-.04m-.01-.43c-.05-.19.06-.15,0,0m-13.51-4.23s0,0,0,0c0,0,0,0,0,0M144.66.18c-2.58,1.43-5.17,2.88-7.65,4.47-2.03,1.31-4.01,2.9-4.86,5.25-1.88,5.21,2.65,10.15,5.59,13.93,3.66,4.7,7.75,8.89,12.74,12.18,2.34,1.54,4.93,3.47,7.71,4.08,2.72.59,5.54-.08,8.04-1.21,4.89-2.21,9.46-5.68,13.44-9.25,2.05-1.83,3.96-3.8,5.77-5.87,1.71-1.96,3.61-4.03,4.88-6.32,1.4-2.52,1.55-5.29-.49-7.52-1.82-1.98-4.28-3.44-6.67-4.61-5.3-2.6-11.28-3.58-17.14-3.65-5.29-.07-10.96.12-16.1,1.46-4.48,1.16-10.28,4.08-10.98,9.24-.53,3.91,3.64,7.62,6.1,10.14,2.14,2.2,4.58,4.16,7.06,5.96,3.19,2.32,6.79,4.76,10.91,4.13,2.21-.34,4.17-1.5,5.93-2.82,1.78-1.34,3.59-2.7,5.24-4.18,3.23-2.88,9.87-9.11,5.84-13.72-1.64-1.87-4.45-2.63-6.76-3.25-2.7-.72-5.48-1.15-8.27-1.22-2.86-.08-5.76.17-8.55.78-2.35.51-6.36,1.06-6.71,4.02-.24,2.02,1.23,3.91,2.33,5.47,1.2,1.71,2.54,3.35,4.06,4.78,1.52,1.42,3.22,2.73,5.4,2.81,2.5.09,4.2-1.77,6.07-3.12,1.55-1.13,3.55-2.88,3.61-4.96.06-2.36-2.25-3.94-4.33-4.35-1.97-.4-4.2,0-6.11.59-1.2.37-2.08,1.45-1.8,2.76.24,1.15,1.55,2.17,2.76,1.8,1.39-.42,3.08-.79,4.25-.61.22.03.47.17.7.22-.17.22-.33.45-.53.65-.55.54-1.2.95-1.8,1.42-.64.51-1.3,1.24-2.08,1.54-1.18.45-2.2-.45-3.06-1.21-2.09-1.84-4.4-4.41-5.48-7.04.02,0,.04,0,.07,0,.19-.01.45-.15.64-.21.57-.18,1.15-.34,1.73-.48,1.16-.29,2.34-.52,3.53-.68,2.21-.31,4.44-.36,6.66-.19,2.3.17,4.56.57,6.77,1.24,1.15.35,4.17.93,4.34,2.48.1.91-.66,1.91-1.15,2.6-.68.95-1.43,1.86-2.22,2.72-1.57,1.7-3.31,3.2-5.16,4.6-2.36,1.78-4.92,4.46-8.19,3.93-2.61-.43-5.39-2.7-7.51-4.35-1.07-.83-2.11-1.7-3.14-2.58-.15-.13-.31-.27-.46-.4-.06-.05-.1-.09-.13-.11-.01-.01-.03-.03-.05-.05-.47-.44-.92-.9-1.37-1.36-1.09-1.14-2.15-2.31-3.15-3.53-.81-.98-1.93-2.03-2.01-3.36-.11-1.66,2.05-3.29,3.29-4.08,1.52-.97,3.23-1.59,4.98-2.01,4.26-1.03,8.78-1.22,13.14-1.25,4.77-.03,9.57.38,14.1,1.93,2.06.71,4.02,1.62,5.84,2.82,1.46.96,3.83,2.2,3.22,4.23-.6,2.01-2.34,3.9-3.65,5.5-1.37,1.67-2.83,3.26-4.36,4.77-3.13,3.08-6.56,5.87-10.27,8.23-1.92,1.22-3.95,2.51-6.14,3.16-2.38.71-4.39.22-6.5-1.02-4.1-2.41-8.07-5.12-11.4-8.53-1.67-1.71-3.23-3.54-4.74-5.4-1.4-1.71-2.91-3.42-4.1-5.29-1.11-1.73-2.06-3.88-1.06-5.88.89-1.8,2.8-2.94,4.45-3.95,2.08-1.28,4.16-2.55,6.2-3.88,1.17-.76.59-2.53-.54-2.53-.2,0-.42.06-.64.18"/></clipPath><linearGradient id="Degradado_sin_nombre_10-8" x1="1726.24" y1="-260.64" x2="1726.94" y2="-260.64" gradientTransform="translate(472242.5 71294.55) rotate(-180) scale(273.45 -273.45)" xlink:href="#Degradado_sin_nombre_10"/><clipPath id="clippath-8"><path class="cls-47" d="m137.6,28.69c-.83.5-1.85,1.02-2.32,1.91-.55,1.05.04,2.07.6,2.98.93,1.51,2.12,2.75,3.38,3.98,1.04,1.01,2.24,2.17,3.62,2.7,1.82.7,3.49-.81,4.36-2.32.85-1.49-.95-3.31-2.34-2.06-.08.07-.76.69-1.08,1.02-.03-.02-.06-.04-.09-.06-.79-.55-1.52-1.19-2.27-1.81-.63-.52-1.28-1.04-1.86-1.62-.47-.48-1.34-1.23-1.54-1.89-.16-.52.35-1.32.61-1.89.23-.5-.27-1.04-.76-1.04-.11,0-.22.03-.33.09"/></clipPath><linearGradient id="Degradado_sin_nombre_10-9" x1="1726.24" y1="-260.62" x2="1726.94" y2="-260.62" gradientTransform="translate(472240.97 71301.94) rotate(180) scale(273.45 -273.45)" xlink:href="#Degradado_sin_nombre_10"/><clipPath id="clippath-9"><path class="cls-47" d="m155.28,42.68c-.19,1.27-.95,2.9.3,3.88.53.42,1.34.44,1.98.51.99.11,1.97.19,2.96.24,1.62.08,3.7.33,5.28-.09,1.78-.47,1.5-2.93.97-4.22-.48-1.17-2.43-1.03-2.76.18-.13.47-.17.94-.16,1.4-.34.02-.71.02-1.04.02-.25,0-.47,0-.64,0-.91.05-1.82.06-2.73.05-.14,0-.38.01-.65.03-.67.03-1.56.07-1.83-.14-.16-.13-.32-1.53-.38-1.95-.05-.36-.3-.51-.57-.51-.33,0-.68.23-.74.61"/></clipPath><linearGradient id="Degradado_sin_nombre_10-10" x1="1726.24" y1="-260.65" x2="1726.94" y2="-260.65" gradientTransform="translate(472266.33 71322.4) rotate(-180) scale(273.45 -273.45)" xlink:href="#Degradado_sin_nombre_10"/><clipPath id="clippath-10"><path class="cls-47" d="m181.59,32.08c-.53.21-.77.58-.82,1.13-.07.76.25,1.13.76,1.63.14.14.48.42.75.66-.75.99-1.79,1.95-2.67,2.64-.12.09-.24.18-.36.27-.04.02-.08.04-.12.06-.11-.13-.28-.28-.31-.32-.46-.46-.95-.87-1.39-1.35-.76-.81-1.93.27-1.45,1.17.52.98,1.53,2.63,2.66,2.96,1.52.44,3.4-1.64,4.42-2.48,1.12-.93,3.12-2.07,2.44-3.78-.45-1.14-1.96-2.69-3.31-2.69-.2,0-.4.03-.59.11"/></clipPath><linearGradient id="Degradado_sin_nombre_10-11" x1="1726.24" y1="-260.68" x2="1726.94" y2="-260.68" gradientTransform="translate(472274.62 71320.49) rotate(180) scale(273.45 -273.45)" xlink:href="#Degradado_sin_nombre_10"/><clipPath id="clippath-11"><path class="cls-47" d="m193.12,24.62c.05.01.07.02.06.02,0,0-.03,0-.06-.02m3.21-9.83c-.7.03-1.41.6-1.2,1.39.25.97.92,1.39,1.58,1.9-.18.29-.37.58-.56.87-.45.69-.9,1.38-1.36,2.06-.68,1-1.36,2.29-2.18,3.28-.22-.15-.45-.29-.67-.44-.56-.37-1.11-.75-1.67-1.12-.75-.5-1.7.52-1.06,1.2.71.76,1.41,1.53,2.14,2.27.48.49.98,1.01,1.75.83.69-.16,1.1-.87,1.52-1.39.73-.89,1.45-1.8,2.15-2.72.65-.85,1.29-1.71,1.92-2.57.5-.7,1.23-1.44,1.36-2.32.22-1.57-2.23-3.24-3.64-3.24-.02,0-.05,0-.07,0"/></clipPath><linearGradient id="Degradado_sin_nombre_10-12" x1="1726.24" y1="-260.7" x2="1726.94" y2="-260.7" gradientTransform="translate(472270.18 71309.47) rotate(180) scale(273.45 -273.45)" xlink:href="#Degradado_sin_nombre_10"/><clipPath id="clippath-12"><path class="cls-47" d="m124.36,10.43c-.98.42-2.36,1.15-2.1,2.4.26,1.26,1.29,2.47,1.97,3.53.67,1.05,1.28,2.47,2.18,3.33.41.39.97.65,1.54.63.66-.02,1.05-.52,1.62-.62,1.77-.31,1.14-3.07-.64-2.73-.26.05-.62.12-.83.3-.13-.49-.89-1.32-1.13-1.64-.74-.97-2.07-1.94-2.64-3.09.3-.38.66-.73.91-1.17.28-.5-.09-1-.58-1-.1,0-.19.02-.29.06"/></clipPath><linearGradient id="Degradado_sin_nombre_10-13" x1="1726.24" y1="-260.59" x2="1726.94" y2="-260.59" gradientTransform="translate(472209.88 71275.85) rotate(-180) scale(273.45 -273.45)" xlink:href="#Degradado_sin_nombre_10"/><clipPath id="clippath-13"><path class="cls-47" d="m111.62,39.17c.42-.38,1.1-1.37,1.7-1.48.53-.1,1.12.41,1.56.69,1.33.84,2.36,1.88,3.14,3.24,1.68,2.93,2.09,6.49,1.55,9.79-.56,3.44-2.47,6.66-6.31,6.7-4.26.05-5.12-5.02-5.15-8.4-.04-3.71,1.19-7,2.84-10.16.22-.07.45-.19.67-.39m-2.43-1.94c-.14.32-.19.64-.15.94-2.21,3.6-3.65,7.69-3.61,11.93.05,4.57,1.69,10.28,6.97,10.82,10.78,1.12,12.57-13.97,8.87-21.14-1.18-2.28-3.14-4.26-5.47-5.36-.78-.37-1.52-.54-2.22-.54-1.91,0-3.47,1.28-4.39,3.33"/></clipPath><linearGradient id="Degradado_sin_nombre_10-14" x1="1726.24" y1="-260.58" x2="1726.94" y2="-260.58" gradientTransform="translate(472232.67 71305.28) rotate(180) scale(273.45 -273.45)" xlink:href="#Degradado_sin_nombre_10"/><clipPath id="clippath-14"><path class="cls-47" d="m113.52,43.09c.38-.74,1.06.34,1.21.65.41.84.55,1.89.65,2.81.21,1.93.79,4.9-1.03,6.25-1,.74-1.25.46-1.64-.56-.4-1.03-.79-2.13-.79-3.25,0-1.77.59-3.64,1.1-5.43.21-.1.39-.25.51-.48m-2.39-.69c-.05.33.06.61.24.83-.61,1.32-1.12,2.7-1.44,4.11-.46,2.01-.15,3.83.59,5.74.48,1.24,1.22,2.48,2.72,2.5,1.56.02,2.88-1.09,3.69-2.31,1.91-2.89,2.04-7.77.71-10.91-.62-1.47-1.87-2.62-3.53-2.64-.01,0-.02,0-.03,0-1.71,0-2.72,1.06-2.94,2.68"/></clipPath><linearGradient id="Degradado_sin_nombre_10-15" x1="1726.24" y1="-260.59" x2="1726.94" y2="-260.59" gradientTransform="translate(472231.6 71305.55) rotate(180) scale(273.45 -273.45)" xlink:href="#Degradado_sin_nombre_10"/><clipPath id="clippath-15"><path class="cls-47" d="m131.26,43.34c1.66-.41,3.47-.56,4.76.75,1.12,1.14,1.73,2.74,1.71,4.32-.03,2.92-2.51,5.88-5.58,5.85-1.57-.02-3.09-1.29-4.18-2.32-.58-.55-1.05-1.13-1.39-1.86-.3-.64-.41-1.36-.68-2,.69-2.38,2.9-4.14,5.37-4.74m-1.88-2.02c-2.89,1.18-5,3.64-5.58,6.56-.94,1.39-.23,3.48.65,4.74,1.07,1.53,2.67,2.76,4.27,3.71,3.44,2.05,7.7.59,9.96-2.49,2.1-2.87,2.03-6.82.17-9.8-.9-1.44-2.29-2.88-3.99-3.31-.54-.14-1.1-.2-1.67-.2-1.31,0-2.66.32-3.81.79"/></clipPath><linearGradient id="Degradado_sin_nombre_10-16" x1="1726.24" y1="-260.61" x2="1726.94" y2="-260.61" gradientTransform="translate(472247.58 71314.59) rotate(180) scale(273.45 -273.45)" xlink:href="#Degradado_sin_nombre_10"/><clipPath id="clippath-16"><path class="cls-47" d="m131.81,48.05c.48.16,1.28.68.95,1.25-.25.42-1.03.59-1.46.4-.62-.28-.46-1.02-.25-1.6.16-.14.39-.17.75-.05m-3.11.56c.09.34.3.56.55.68,0,.12,0,.24.01.36.1.77.63,1.39,1.31,1.72,1.47.71,3.45.09,4.18-1.39.88-1.79-.76-3.65-2.43-4.13-.25-.07-.52-.11-.79-.11-1.56,0-3.3,1.12-2.83,2.87"/></clipPath><linearGradient id="Degradado_sin_nombre_10-17" x1="1726.24" y1="-260.61" x2="1726.94" y2="-260.61" gradientTransform="translate(472247.65 71310.33) rotate(180) scale(273.45 -273.45)" xlink:href="#Degradado_sin_nombre_10"/><clipPath id="clippath-17"><path class="cls-47" d="m139.31,48.81c-.74,0-1,1.22-.21,1.35,3.14.53,6.47,1.63,8.8,3.89-1.47.19-2.94.21-4.43.05-1.04-.11-2.06-.3-3.07-.57-.96-.26-1.93-.81-2.94-.72-.79.07-1.14.87-.65,1.49.68.87,1.91,1.15,2.93,1.45,1.13.33,2.3.56,3.47.69,2.38.26,4.81.08,7.14-.5.92-.23,1.03-1.25.54-1.91-2.69-3.6-7.12-5.22-11.5-5.22h-.08"/></clipPath><linearGradient id="Degradado_sin_nombre_10-18" x1="1726.24" y1="-260.63" x2="1726.94" y2="-260.63" gradientTransform="translate(472260.53 71323.53) rotate(180) scale(273.45 -273.45)" xlink:href="#Degradado_sin_nombre_10"/><clipPath id="clippath-18"><path class="cls-47" d="m99.26,44.03c-.22,1.31-.48,2.62-.79,3.91-.22.93-.81,2.18-.31,3.11.44.82,1.52.98,2.35,1.17.87.2,1.81.61,2.55-.06.3-.27.31-.67.16-1.01-.27-.62-.77-.71-1.37-.85-.36-.09-.71-.18-1.07-.27-.19-.05-.38-.09-.57-.14.36-.73.43-1.93.58-2.72.1-.54.2-1.08.29-1.62,1.07.25,2.16.56,3.24.61.82.04,1.14-1.11.45-1.53-1.25-.77-2.82-1.02-4.24-1.29-.08-.02-.16-.02-.25-.02-.45,0-.95.22-1.03.72"/></clipPath><linearGradient id="Degradado_sin_nombre_10-19" x1="1726.24" y1="-260.57" x2="1726.94" y2="-260.57" gradientTransform="translate(472221.73 71301.02) rotate(180) scale(273.45 -273.45)" xlink:href="#Degradado_sin_nombre_10"/><clipPath id="clippath-19"><path class="cls-47" d="m104.24,31.17c-.59,1.16-1.16,2.32-1.65,3.53-.23.57-.45,1.13-.67,1.7-.16.42-.32,1.36-.61,1.68-.5.55-.47,1.19.09,1.68.85.75,2.98,1.23,4.05.9.66-.2.96-1.05.32-1.5-.47-.33-.94-.43-1.5-.6-.13-.04-.73-.18-1.11-.27.79-1.78,1.7-3.52,2.59-5.26.61.31,1.24.58,1.93.73.77.17,1.36-1.01.79-1.54-.77-.71-1.64-1.13-2.56-1.61-.23-.12-.45-.18-.65-.18-.43,0-.79.25-1.03.71"/></clipPath><linearGradient id="Degradado_sin_nombre_10-20" x1="1726.24" y1="-260.57" x2="1726.94" y2="-260.57" gradientTransform="translate(472212.41 71288.73) rotate(180) scale(273.45 -273.45)" xlink:href="#Degradado_sin_nombre_10"/><clipPath id="clippath-20"><path class="cls-47" d="m97.99,55.4c-.27.6-.14,1.42-.14,2.06,0,.89.01,1.78.06,2.68.06.99-.17,3.22.95,3.75.54.25,1.07-.06,1.56-.26.89-.36,4.73-1.02,5.69-.93,1.33.13,1.44-1.79.08-1.85-.71-.03-4.24.44-4.93.6-.4.09-.83.28-1.26.4-.02-.38,0-.82,0-1-.04-.52-.06-1.04-.08-1.56-.02-.52-.03-1.04-.02-1.56,0-.22-.03-.74,0-1.14.69-.14,1.39-.15,2.05-.44.71-.32.64-1.29-.12-1.48-.43-.11-1.07-.21-1.7-.21-.91,0-1.82.21-2.14.94"/></clipPath><linearGradient id="Degradado_sin_nombre_10-21" x1="1726.24" y1="-260.57" x2="1726.94" y2="-260.57" gradientTransform="translate(472233.55 71314) rotate(-180) scale(273.45 -273.45)" xlink:href="#Degradado_sin_nombre_10"/><clipPath id="clippath-21"><path class="cls-47" d="m120.05,55.37c1.95,1.36,2.61,3.61,3.6,5.66.16.34.53.93.51,1.19-.05.47-.69.98-1.02,1.28-.74.68-1.55,1.26-2.39,1.8-1.84,1.19-6.62,3.82-8.57,4.81-1.94.98-9.35,4.58-11.08,5.9-.8.61.06,1.71.87,1.56,1.28-.24,7.59-3.81,8.78-4.33,1.34-.59,2.68-1.18,4-1.82,2.32-1.13,7.43-4.12,9.46-5.72.96-.75,1.91-1.63,2.4-2.77.67-1.57.24-2.63-.32-4.14-1.01-2.7-2.36-5.5-5.52-5.86-.06,0-.11,0-.16,0-1.26,0-1.47,1.8-.54,2.44"/></clipPath><linearGradient id="Degradado_sin_nombre_10-22" x1="1726.24" y1="-260.59" x2="1726.94" y2="-260.59" gradientTransform="translate(472248.64 71325.22) rotate(180) scale(273.45 -273.45)" xlink:href="#Degradado_sin_nombre_10"/><clipPath id="clippath-22"><path class="cls-47" d="m113.28,18.57c1.38,2.13,8.18,6.87,9.86,8.76.86.97,1.71,1.95,2.54,2.94.71.86,1.61,1.88,1.26,3.08-.28.96-1.16,1.82-1.81,2.54-.63.7-1.25,1.39-1.87,2.1-1.25,1.43-2.99,2.64-3.75,4.4-.35.82.59,1.44,1.28,1.33,2.12-.35,3.88-2.41,5.2-3.97,1.6-1.9,3.28-3.8,3.46-6.39.18-2.68-1.91-4.6-3.57-6.43-2.05-2.27-9.18-7.51-11.84-9.07-.08-.05-.17-.07-.26-.07-.38,0-.74.41-.49.79"/></clipPath><linearGradient id="Degradado_sin_nombre_10-23" x1="1726.24" y1="-260.59" x2="1726.94" y2="-260.59" gradientTransform="translate(472220.57 71290.38) rotate(-180) scale(273.45 -273.45)" xlink:href="#Degradado_sin_nombre_10"/><clipPath id="clippath-23"><path class="cls-47" d="m120.25,55.23c-.11,1.14.4,2.26.35,3.44-.02.38.03.91-.2,1.23-.34.47-1.23.84-1.7,1.15-2.06,1.31-17.24,7.99-19.26,9.36-.6.4-.27,1.39.49,1.21,3-.74,19.06-7.81,21.51-9.67,2.05-1.55,2.82-5.6,1.08-7.6-.25-.29-.56-.42-.87-.42-.67,0-1.32.59-1.39,1.31"/></clipPath><linearGradient id="Degradado_sin_nombre_10-24" x1="1726.24" y1="-260.59" x2="1726.94" y2="-260.59" gradientTransform="translate(472244.42 71320.49) rotate(180) scale(273.45 -273.45)" xlink:href="#Degradado_sin_nombre_10"/><clipPath id="clippath-24"><path class="cls-47" d="m108.63,24.9c1.19,1.32,9.24,6.49,10.62,7.6.99.8,2.61,1.71,3.19,2.89.57,1.15-.68,2.78-1.28,3.72-.67,1.06-1.71,1.94-2.07,3.15-.36,1.22,1.02,2.36,2.14,1.71,1.31-.77,2.32-2.46,2.97-3.82.74-1.55,1.39-3.29.65-4.95-.68-1.51-1.85-2.47-3.13-3.46-1.78-1.37-10.14-7-12.12-8.07-.13-.07-.27-.1-.4-.1-.62,0-1.09.77-.58,1.33"/></clipPath><linearGradient id="Degradado_sin_nombre_10-25" x1="1726.24" y1="-260.58" x2="1726.94" y2="-260.58" gradientTransform="translate(472220.5 71290.53) rotate(180) scale(273.45 -273.45)" xlink:href="#Degradado_sin_nombre_10"/><clipPath id="clippath-25"><path class="cls-47" d="m127.39,42.63c-1.28.36-2.54,2.3-3.66,2.31-1.12,0-1.49-1.97-1.49-1.97,0,0-.35,1.97-.36,2.43,0,.46.18,8.19.18,8.19,0,0,.22-.58,1.05-.97.84-.39,2.8,1.71,2.8,1.71,0,0,.54-.72.31-1.42-.22-.7-.95-5.42-.4-6.92.51-1.39,2.52-3.4,1.79-3.4-.06,0-.13.01-.23.04"/></clipPath><linearGradient id="Degradado_sin_nombre_10-26" x1="1726.24" y1="-260.6" x2="1726.94" y2="-260.6" gradientTransform="translate(472240.87 71311.62) rotate(-180) scale(273.45 -273.45)" xlink:href="#Degradado_sin_nombre_10"/><clipPath id="clippath-26"><path class="cls-4" d="m151.85,67.4s-.01,0-.02.01c-.21.12-.17.07-.08.02.02,0,.04-.02.06-.03.01,0,.03,0,.04,0m-6.54-3.86c-.25-.25-.2-.34,0,0m27.38-1.73c-.07.07-.2.15-.23.23.05-.11.13-.18.23-.23m30.34-33.86c-.03-.07,0-.14.1.02.01.02.02.04.04.06,0,0-.01,0-.02,0-.06,0-.1-.04-.12-.08m-2.28-2.32c-1.6,1.52-3.09,3.15-4.57,4.79-3.23,3.58-6.38,7.24-9.37,11.02-4.22,5.32-7.81,11.09-11.54,16.74-.41.63-.83,1.25-1.26,1.87-.97-1.26-2.01-2.57-2.8-4-1.29-2.34-3.61-6.25-6.89-5.33-2.3.65-3.15,4.13-4.02,6.02-1.53,3.32-3.34,6.37-6.04,8.89-.47.44-.95.86-1.47,1.21-.07.05-.13.09-.2.13-.05-.08-.1-.14-.11-.18-1.1-1.8-1.78-3.8-2.72-5.68-.61-1.22-1.76-2.1-3.21-1.7-1.17.32-2.04,1.46-3.03,2.05-1.47.88-3.09,1.12-4.77.85-1.33-.22-2.7.35-3.08,1.75-.33,1.21.41,2.85,1.75,3.08,2.53.44,4.89.38,7.28-.64.55-.24,1.07-.51,1.58-.82.32.73.65,1.46,1.01,2.17.87,1.75,2.07,4.01,4.14,4.5,2.49.58,5.09-1.85,6.71-3.41,2.61-2.52,4.6-5.53,6.16-8.79.52-1.09,1-2.19,1.49-3.29.22.34.41.7.6,1.04.55.97,1.1,1.9,1.73,2.83.79,1.15,1.6,2.27,2.44,3.38.71.93,1.45,2.09,2.65,2.41,2.22.59,3.64-1.66,4.73-3.18,3.84-5.37,7.19-11.06,11.1-16.39.33-.45.67-.9,1-1.35.1-.12.2-.25.29-.38.59-.74,1.19-1.48,1.79-2.21,1.45-1.76,2.92-3.49,4.4-5.21,2.46-2.87,4.94-5.74,7.65-8.37.89,1.35,1.71,2.75,2.48,4.17,2.94,5.39,5.74,11.23,6.34,17.42.73,7.59.33,15.44-1.15,22.95-1.8-.93-3.17-2.52-4.42-4.17-1.48-1.95-2.91-4.4-5.14-5.6-2.45-1.31-5.52-.36-8.05.21-2.57.58-5.32,1.3-8,1.14,2.19-4,4.87-7.73,7.85-11.16,2.71-3.13,5.7-6.18,9.16-8.51,1.01,2.22,1.92,4.49,2.57,6.84.87,3.13,1.19,6.33,1.34,9.57.09,1.88,2.84,1.89,2.93,0,.33-6.98-1.8-13.41-4.69-19.67-.38-.82-1.56-1.01-2.28-.6-4.39,2.5-8.12,6.19-11.42,9.97-3.71,4.26-7.03,8.93-9.53,14-.48.97-.1,2.2,1.02,2.51,3.47.93,7.09.28,10.52-.46,2-.43,5.5-1.82,7.21-.65,1.96,1.35,3.2,3.94,4.66,5.78,1.86,2.35,4.17,4.38,7.16,5.06.97.22,2.02-.29,2.29-1.3,2.05-7.71,2.96-15.85,2.66-23.82-.26-6.79-2.25-12.93-5.13-19.04-1.13-2.4-2.4-4.75-3.83-6.98-.83-1.3-1.84-3.19-3.46-3.62-.23-.06-.46-.09-.69-.09-1.5,0-2.8,1.28-3.83,2.25"/></clipPath><linearGradient id="Degradado_sin_nombre_10-27" x1="1726.24" y1="-260.69" x2="1726.94" y2="-260.69" gradientTransform="translate(472285.12 71338.68) rotate(180) scale(273.45 -273.45)" xlink:href="#Degradado_sin_nombre_10"/></defs><g id="Capa_1-2"><g class="cls-45"><rect class="cls-37" x="121.63" y="37.27" width="72.8" height="117.3" transform="translate(33.41 232.46) rotate(-78.87)"/></g><g class="cls-31"><rect class="cls-30" x="164.02" y="107.79" width="5.57" height="5.61" transform="translate(26.09 252.91) rotate(-78.87)"/></g><g class="cls-18"><rect class="cls-16" x="145.64" y="94.27" width="5.57" height="5.61" transform="translate(24.52 223.97) rotate(-78.87)"/></g><g class="cls-50"><rect class="cls-27" x="125.63" y="80.38" width="5.58" height="5.61" transform="translate(22 193.12) rotate(-78.87)"/></g><g class="cls-32"><rect class="cls-46" x="168.48" y="80.38" width="5.58" height="5.61" transform="translate(56.58 235.17) rotate(-78.87)"/></g><g class="cls-61"><rect class="cls-69" x="183.71" y="93.32" width="5.58" height="5.61" transform="translate(56.18 260.56) rotate(-78.87)"/></g><g class="cls-24"><rect class="cls-12" x="112.97" y="94.64" width="11.25" height="13.14" transform="translate(-3.6 198.03) rotate(-78.87)"/></g><g class="cls-28"><rect class="cls-13" x="135.16" y="-13.8" width="51.82" height="68.29" transform="translate(110.01 174.45) rotate(-78.87)"/></g><g class="cls-54"><rect class="cls-62" x="134.07" y="27.02" width="14.7" height="15.51" transform="translate(80 166.82) rotate(-78.87)"/></g><g class="cls-43"><rect class="cls-1" x="156.82" y="37.66" width="8.27" height="14.13" transform="translate(85.99 194.02) rotate(-78.87)"/></g><g class="cls-64"><rect class="cls-67" x="175.19" y="30.53" width="11.28" height="12.29" transform="translate(109.94 207.03) rotate(-78.87)"/></g><g class="cls-9"><rect class="cls-7" x="187.19" y="14.06" width="14.44" height="13.87" transform="translate(136.28 207.7) rotate(-78.87)"/></g><g class="cls-38"><rect class="cls-53" x="120.88" y="9.81" width="11.58" height="11.08" transform="translate(87.15 136.67) rotate(-78.87)"/></g><g class="cls-19"><rect class="cls-51" x="99.48" y="35.64" width="31.4" height="24.65" transform="translate(45.88 151.72) rotate(-78.87)"/></g><g class="cls-58"><rect class="cls-70" x="105.52" y="41.46" width="17.41" height="12.38" transform="translate(45.42 150.53) rotate(-78.87)"/></g><g class="cls-22"><rect class="cls-23" x="121.34" y="38.93" width="20.97" height="21.04" transform="translate(57.85 169.25) rotate(-78.87)"/></g><g class="cls-10"><rect class="cls-48" x="128.1" y="44.67" width="7.64" height="8.48" transform="translate(58.46 168.91) rotate(-78.87)"/></g><g class="cls-59"><rect class="cls-44" x="138.53" y="44.61" width="10.65" height="16.3" transform="translate(64.32 183.72) rotate(-78.87)"/></g><g class="cls-57"><rect class="cls-14" x="96.14" y="43.32" width="10.84" height="9.49" transform="translate(34.79 138.44) rotate(-78.87)"/></g><g class="cls-49"><rect class="cls-35" x="98.98" y="30.67" width="11.94" height="10.12" transform="translate(49.63 131.8) rotate(-78.87)"/></g><g class="cls-8"><rect class="cls-21" x="96.94" y="53.55" width="11.4" height="11.52" transform="translate(24.63 148.57) rotate(-78.87)"/></g><g class="cls-29"><rect class="cls-25" x="99.01" y="49.69" width="29.55" height="31.26" transform="translate(27.72 164.36) rotate(-78.87)"/></g><g class="cls-41"><rect class="cls-17" x="106.94" y="20.15" width="28.76" height="21.3" transform="translate(67.68 143.9) rotate(-78.87)"/></g><g class="cls-66"><rect class="cls-36" x="100.32" y="48.67" width="22.44" height="28.38" transform="translate(28.33 160.17) rotate(-78.87)"/></g><g class="cls-39"><rect class="cls-40" x="104.85" y="23.49" width="24.03" height="21.21" transform="translate(60.84 142.18) rotate(-78.87)"/></g><g class="cls-20"><rect class="cls-65" x="118.72" y="44.15" width="12.77" height="8.62" transform="translate(53.41 161.86) rotate(-78.87)"/></g><path class="cls-4" d="m151.85,67.4s-.01,0-.02.01c-.21.12-.17.07-.08.02.02,0,.04-.02.06-.03.01,0,.03,0,.04,0m-6.54-3.86c-.25-.25-.2-.34,0,0m27.38-1.73c-.07.07-.2.15-.23.23.05-.11.13-.18.23-.23m30.34-33.86c-.03-.07,0-.14.1.02.01.02.02.04.04.06,0,0-.01,0-.02,0-.06,0-.1-.04-.12-.08m-2.28-2.32c-1.6,1.52-3.09,3.15-4.57,4.79-3.23,3.58-6.38,7.24-9.37,11.02-4.22,5.32-7.81,11.09-11.54,16.74-.41.63-.83,1.25-1.26,1.87-.97-1.26-2.01-2.57-2.8-4-1.29-2.34-3.61-6.25-6.89-5.33-2.3.65-3.15,4.13-4.02,6.02-1.53,3.32-3.34,6.37-6.04,8.89-.47.44-.95.86-1.47,1.21-.07.05-.13.09-.2.13-.05-.08-.1-.14-.11-.18-1.1-1.8-1.78-3.8-2.72-5.68-.61-1.22-1.76-2.1-3.21-1.7-1.17.32-2.04,1.46-3.03,2.05-1.47.88-3.09,1.12-4.77.85-1.33-.22-2.7.35-3.08,1.75-.33,1.21.41,2.85,1.75,3.08,2.53.44,4.89.38,7.28-.64.55-.24,1.07-.51,1.58-.82.32.73.65,1.46,1.01,2.17.87,1.75,2.07,4.01,4.14,4.5,2.49.58,5.09-1.85,6.71-3.41,2.61-2.52,4.6-5.53,6.16-8.79.52-1.09,1-2.19,1.49-3.29.22.34.41.7.6,1.04.55.97,1.1,1.9,1.73,2.83.79,1.15,1.6,2.27,2.44,3.38.71.93,1.45,2.09,2.65,2.41,2.22.59,3.64-1.66,4.73-3.18,3.84-5.37,7.19-11.06,11.1-16.39.33-.45.67-.9,1-1.35.1-.12.2-.25.29-.38.59-.74,1.19-1.48,1.79-2.21,1.45-1.76,2.92-3.49,4.4-5.21,2.46-2.87,4.94-5.74,7.65-8.37.89,1.35,1.71,2.75,2.48,4.17,2.94,5.39,5.74,11.23,6.34,17.42.73,7.59.33,15.44-1.15,22.95-1.8-.93-3.17-2.52-4.42-4.17-1.48-1.95-2.91-4.4-5.14-5.6-2.45-1.31-5.52-.36-8.05.21-2.57.58-5.32,1.3-8,1.14,2.19-4,4.87-7.73,7.85-11.16,2.71-3.13,5.7-6.18,9.16-8.51,1.01,2.22,1.92,4.49,2.57,6.84.87,3.13,1.19,6.33,1.34,9.57.09,1.88,2.84,1.89,2.93,0,.33-6.98-1.8-13.41-4.69-19.67-.38-.82-1.56-1.01-2.28-.6-4.39,2.5-8.12,6.19-11.42,9.97-3.71,4.26-7.03,8.93-9.53,14-.48.97-.1,2.2,1.02,2.51,3.47.93,7.09.28,10.52-.46,2-.43,5.5-1.82,7.21-.65,1.96,1.35,3.2,3.94,4.66,5.78,1.86,2.35,4.17,4.38,7.16,5.06.97.22,2.02-.29,2.29-1.3,2.05-7.71,2.96-15.85,2.66-23.82-.26-6.79-2.25-12.93-5.13-19.04-1.13-2.4-2.4-4.75-3.83-6.98-.83-1.3-1.84-3.19-3.46-3.62-.23-.06-.46-.09-.69-.09-1.5,0-2.8,1.28-3.83,2.25"/><g class="cls-26"><rect class="cls-34" x="141.66" y="5.05" width="70" height="91.72" transform="translate(92.6 214.42) rotate(-78.87)"/></g><text class="cls-3" transform="translate(35.49 159.54)"><tspan class="cls-42" x="0" y="0">R</tspan><tspan class="cls-33" x="22.58" y="0">U</tspan><tspan class="cls-72" x="43.1" y="0">T</tspan><tspan class="cls-56" x="60.4" y="0">A </tspan><tspan class="cls-60" x="99.65" y="0">L</tspan><tspan class="cls-42" x="117.59" y="0">E</tspan><tspan class="cls-71" x="140.04" y="0">Y</tspan><tspan class="cls-33" x="160.51" y="0">E</tspan><tspan class="cls-15" x="183.6" y="0">N</tspan><tspan class="cls-68" x="204.75" y="0">D</tspan><tspan x="227.32" y="0">A</tspan></text><text class="cls-5" transform="translate(0 209.77)"><tspan class="cls-2" x="0" y="0">E</tspan><tspan class="cls-63" x="35.39" y="0">L</tspan><tspan class="cls-11" x="65.82" y="0"> </tspan><tspan class="cls-52" x="85.48" y="0">D</tspan><tspan class="cls-55" x="119.88" y="0">O</tspan><tspan class="cls-6" x="167.51" y="0">R</tspan><tspan class="cls-2" x="199.42" y="0">A</tspan><tspan class="cls-52" x="234.81" y="0">D</tspan><tspan x="269.21" y="0">O</tspan></text></g></svg>