<?xml version="1.0" encoding="utf-8"?>
<!-- Generator: Adobe Illustrator 26.5.0, SVG Export Plug-In . SVG Version: 6.00 Build 0)  -->
<svg version="1.1" id="Capa_1" xmlns="http://www.w3.org/2000/svg" xmlns:xlink="http://www.w3.org/1999/xlink" x="0px" y="0px"
	 viewBox="0 0 173.4 174.8" style="enable-background:new 0 0 173.4 174.8;" xml:space="preserve">
<style type="text/css">
	.st0{fill:#F9C126;}
</style>
<path class="st0" d="M95.6,3.6c1.5,4.8,3.4,9.5,5.2,14.2c2.6,7.1,5.2,14.1,8,21.2c4,10.2,7.7,20.3,11.5,30.5
	c1.3,3.4,2.6,6.9,3.8,10.3c0.4,1.4,1.4,2.5,2.8,3c5.3,1.8,10.6,3.7,16,5.6l26.6,9.6c0.2,0,0.4,0,0.6,0v1l-11.1,4.6l-18.7,7.7
	c-1.3,0.4-2.6,0.9-3.7,1.7c7.5,20,15,40,22.5,60.1h-0.3l-5.9-4.8l-10.3-8.6l-9.5-8l-11.4-9.5l-9.6-8c-3-2.5-6-5-8.9-7.5
	c-0.5-0.5-1.2-0.6-1.8-0.3l-9.9,3.5c-6.7,2.4-13.5,4.8-20,7.3c-4.7,1.8-9.5,3.4-14.1,5.2c-4.7,1.8-9.1,3.2-13.6,4.8L27,153
	c-0.4,0.2-0.9,0.3-1.4,0.3c-0.1-0.7,0-1.5,0.2-2.2c2.3-6.3,4.6-12.5,6.9-18.7l10.7-29.5c0.7-2,1.4-4,2.1-5.9c0.2-0.6,0.4-1,0-1.6
	c-0.4-0.5-1.5-1.8-2.3-2.6c-2.7-2.9-5.5-5.7-8-8.7c-1.6-2-3.6-3.6-5.2-5.6c-1.5-2-4-3.8-5.5-5.9c-1.5-2.2-3.6-3.4-5-5.4
	c-2-2.8-5-4.7-6.8-7.7c-0.6-0.9-1.6-1.5-2.4-2.3l-7.2-7.7v-1.1l32.3,6.7l28.1,5.7c0.3,0,0.6,0,0.9,0c0.3,0,0.4,0,0.4-0.4
	c0.2-0.7,0.5-1.4,0.9-2c1.2-1.8,2.1-4,3.1-5.8c2.2-4.2,4.5-8.5,6.7-12.7c2.2-4.2,4.4-8.7,6.8-13s4.2-8.2,6.4-12.2
	c2.2-4,4-7.4,6-11.1H95.6"/>
</svg>
