<svg xmlns="http://www.w3.org/2000/svg" xmlns:xlink="http://www.w3.org/1999/xlink" viewBox="0 0 29.87 29.87"><defs><style>.cls-1{fill:url(#Degradado_sin_nombre_136);}.cls-2{fill:#fff;}</style><linearGradient id="Degradado_sin_nombre_136" x1="7.47" y1="27.87" x2="22.41" y2="2" gradientUnits="userSpaceOnUse"><stop offset="0" stop-color="#46a6de"/><stop offset="0.99" stop-color="#5bc490"/></linearGradient></defs><title>tel</title><g id="Capa_2" data-name="Capa 2"><g id="Capa_1-2" data-name="Capa 1"><circle class="cls-1" cx="14.94" cy="14.94" r="14.94"/><path class="cls-2" d="M22.85,19.52a4,4,0,0,1-.11.79,4.78,4.78,0,0,1-.24.77,3,3,0,0,1-1.37,1.2,4.36,4.36,0,0,1-2.09.57,3.81,3.81,0,0,1-.59,0,5.14,5.14,0,0,1-.65-.14l-.53-.16-.63-.23-.55-.21a9.89,9.89,0,0,1-2-.93,16.94,16.94,0,0,1-3-2.42,16.91,16.91,0,0,1-2.42-3,10.26,10.26,0,0,1-.93-2c0-.07-.09-.25-.2-.55s-.19-.51-.23-.63a4.85,4.85,0,0,1-.17-.53,5.14,5.14,0,0,1-.14-.65,5.47,5.47,0,0,1,0-.59A4.3,4.3,0,0,1,7.6,8.74,3,3,0,0,1,8.79,7.37a4.78,4.78,0,0,1,.77-.24A4,4,0,0,1,10.35,7a.55.55,0,0,1,.24,0c.13,0,.33.33.59.85l.34.61.39.71.35.6.2.28a2.78,2.78,0,0,1,.24.4.79.79,0,0,1,.08.32,1,1,0,0,1-.32.57,5.77,5.77,0,0,1-.7.61,8.17,8.17,0,0,0-.7.6.87.87,0,0,0-.32.52.74.74,0,0,0,.06.25l.09.23.16.27.13.21a11.24,11.24,0,0,0,4.6,4.6l.21.13.27.16.23.09a.73.73,0,0,0,.26.06c.13,0,.3-.11.51-.32a8.17,8.17,0,0,0,.6-.7,5.86,5.86,0,0,1,.62-.7.93.93,0,0,1,.56-.32.79.79,0,0,1,.32.08l.4.24.28.2.6.35.71.39.61.34c.53.26.81.46.86.6a.67.67,0,0,1,0,.23Z"/></g></g></svg>