<?xml version="1.0" encoding="UTF-8"?><svg id="Capa_2" xmlns="http://www.w3.org/2000/svg" viewBox="0 0 26.76 26.76"><defs><style>.cls-1{fill:#6dc184;}</style></defs><g id="Capa_1-2"><path class="cls-1" d="m13.38,0C5.99,0,0,5.99,0,13.38s5.99,13.38,13.38,13.38,13.38-5.99,13.38-13.38S20.77,0,13.38,0Zm6.99,18.2c-.07.29-.14.52-.21.69-.14.34-.55.69-1.23,1.07-.63.34-1.26.51-1.87.51-.18,0-.36-.01-.53-.04-.17-.02-.36-.07-.58-.13-.22-.06-.37-.11-.48-.15-.1-.04-.29-.11-.56-.21-.27-.1-.43-.16-.49-.18-.66-.24-1.24-.51-1.76-.84-.86-.53-1.75-1.25-2.66-2.17-.92-.92-1.64-1.8-2.17-2.66-.32-.52-.6-1.1-.84-1.76-.02-.06-.08-.22-.18-.49-.1-.27-.17-.45-.21-.56-.04-.1-.09-.26-.15-.48-.06-.22-.1-.41-.13-.58-.02-.17-.04-.35-.04-.53,0-.62.17-1.24.51-1.87.38-.68.73-1.09,1.07-1.23.17-.07.4-.14.69-.21.29-.07.53-.1.71-.1.09,0,.16.01.21.03.12.04.3.3.53.77.07.13.17.31.3.54.13.24.24.45.35.64.11.19.21.37.31.54.02.03.08.11.18.25.1.14.17.26.22.36.05.1.07.19.07.29,0,.14-.1.3-.29.5-.19.2-.4.39-.62.55-.22.17-.43.34-.62.53-.19.19-.29.34-.29.46,0,.06.02.14.05.23.03.09.06.16.09.21.02.05.07.13.14.24.07.11.11.18.12.19.51.92,1.09,1.71,1.75,2.37.66.66,1.45,1.24,2.37,1.75.01,0,.08.04.19.12.11.07.19.12.24.14.05.02.11.05.21.09s.17.05.23.05c.12,0,.27-.1.46-.29.19-.19.37-.4.53-.62.17-.22.35-.43.55-.62.2-.19.37-.29.5-.29.09,0,.19.02.29.07.1.05.22.12.36.22.14.1.22.16.25.18.17.1.35.21.54.31.19.11.4.23.64.35.24.13.42.23.54.3.47.24.73.41.77.53.02.05.03.12.03.21,0,.18-.03.42-.1.71Z"/></g></svg>