<svg xmlns="http://www.w3.org/2000/svg" viewBox="0 0 21.12 17.32"><title>twitter</title><g id="Capa_2" data-name="Capa 2"><g id="Capa_1-2" data-name="Capa 1"><path d="M21,2.08a8.93,8.93,0,0,1-2.15.6c.35-.06.84-.67,1-.93a3.72,3.72,0,0,0,.7-1.28s0-.09,0-.11a.11.11,0,0,0-.11,0,10.83,10.83,0,0,1-2.52,1,.17.17,0,0,1-.18-.05,1.52,1.52,0,0,0-.22-.22,4.27,4.27,0,0,0-3.09-1,4.44,4.44,0,0,0-1.78.5,4.67,4.67,0,0,0-1.44,1.17,4.41,4.41,0,0,0-.85,1.72,4.6,4.6,0,0,0-.05,1.81c0,.1,0,.11-.09.1A13.42,13.42,0,0,1,1.58.9c-.1-.12-.16-.12-.24,0A4.38,4.38,0,0,0,2.09,6.1c.17.16.34.32.53.47A4.5,4.5,0,0,1,1,6.1c-.1-.06-.16,0-.16.09a2.86,2.86,0,0,0,0,.5,4.45,4.45,0,0,0,2.74,3.54,2.78,2.78,0,0,0,.56.17,5.24,5.24,0,0,1-1.64,0c-.12,0-.17,0-.12.15A4.62,4.62,0,0,0,5.8,13.49a3.62,3.62,0,0,1,.46.06l0,0a5.49,5.49,0,0,1-2.36,1.25,8.48,8.48,0,0,1-3.57.45.63.63,0,0,0-.29,0s0,.08.06.13a8,8,0,0,0,.74.44,11.71,11.71,0,0,0,2.39,1,12.73,12.73,0,0,0,12.36-2.89C18.1,11.4,19,7.93,19,4.46c0-.14.16-.21.25-.28A9,9,0,0,0,21,2.43a.68.68,0,0,0,.15-.34h0C21.12,2,21.08,2,21,2.08Z"/></g></g></svg>